HIERARCHY
ROOT Hips
{
  OFFSET -650.117 90.7961 -35.1388
  CHANNELS 6 Xposition Yposition Zposition Zrotation Xrotation Yrotation
  JOINT RightUpLeg
  {
    OFFSET -9.3637 -1.63529 0.069997
    CHANNELS 3 Zrotation Xrotation Yrotation
    JOINT RightLeg
    {
      OFFSET -0.0678671 -41.8916 0.140965
      CHANNELS 3 Zrotation Xrotation Yrotation
      JOINT RightFoot
      {
        OFFSET -0.097916 -40.7118 1.17905
        CHANNELS 3 Zrotation Xrotation Yrotation
        End Site
        {
          OFFSET 0 -7.69 17.5
        }
      }
    }
  }
  JOINT LeftUpLeg
  {
    OFFSET 9.35456 -1.64591 -0.0481707
    CHANNELS 3 Zrotation Xrotation Yrotation
    JOINT LeftLeg
    {
      OFFSET 0.0137955 -41.8916 -0.0319793
      CHANNELS 3 Zrotation Xrotation Yrotation
      JOINT LeftFoot
      {
        OFFSET -0.434125 -42.2293 0.14272
        CHANNELS 3 Zrotation Xrotation Yrotation
        End Site
        {
          OFFSET 0 -7.69 17.5
        }
      }
    }
  }
  JOINT Spine
  {
    OFFSET -0.000389875 14.315 0.0302802
    CHANNELS 3 Zrotation Xrotation Yrotation
    JOINT Spine1
    {
      OFFSET -0.0210168 9.71638 0.0339495
      CHANNELS 3 Zrotation Xrotation Yrotation
      JOINT Spine2
      {
        OFFSET -0.00398093 10.1272 0.0244977
        CHANNELS 3 Zrotation Xrotation Yrotation
        JOINT Spine3
        {
          OFFSET -0.0157361 9.72078 -0.00715032
          CHANNELS 3 Zrotation Xrotation Yrotation
          JOINT Neck
          {
            OFFSET 0.0203677 10.3851 0.0276971
            CHANNELS 3 Zrotation Xrotation Yrotation
            JOINT Head
            {
              OFFSET 0.0195074 9.4693 0.0167206
              CHANNELS 3 Zrotation Xrotation Yrotation
              End Site
              {
                OFFSET 0 15.95 0
              }
            }
          }
          JOINT RightShoulder
          {
            OFFSET -3.18223 6.91524 0.036271
            CHANNELS 3 Zrotation Xrotation Yrotation
            JOINT RightArm
            {
              OFFSET -12.7725 -0.0209029 0.0184468
              CHANNELS 3 Zrotation Xrotation Yrotation
              JOINT RightForeArm
              {
                OFFSET -26.3214 -0.142263 0.00736407
                CHANNELS 3 Zrotation Xrotation Yrotation
                JOINT RightHand
                {
                  OFFSET -25.9649 -0.0181793 0.0897219
                  CHANNELS 3 Zrotation Xrotation Yrotation
                  JOINT RightHandThumb1
                  {
                    OFFSET -2.48905 0.190105 3.12053
                    CHANNELS 3 Zrotation Xrotation Yrotation
                    JOINT RightHandThumb2
                    {
                      OFFSET -3.68274 0 0
                      CHANNELS 3 Zrotation Xrotation Yrotation
                      JOINT RightHandThumb3
                      {
                        OFFSET -2.55832 0 0
                        CHANNELS 3 Zrotation Xrotation Yrotation
                        End Site
                        {
                          OFFSET -2.194 0 0
                        }
                      }
                    }
                  }
                  JOINT RightInHandIndex
                  {
                    OFFSET -3.22368 0.508421 1.97842
                    CHANNELS 3 Zrotation Xrotation Yrotation
                    JOINT RightHandIndex1
                    {
                      OFFSET -5.21684 -0.091368 0.999158
                      CHANNELS 3 Zrotation Xrotation Yrotation
                      JOINT RightHandIndex2
                      {
                        OFFSET -3.61937 0 0
                        CHANNELS 3 Zrotation Xrotation Yrotation
                        JOINT RightHandIndex3
                        {
                          OFFSET -2.0521 0 0
                          CHANNELS 3 Zrotation Xrotation Yrotation
                          End Site
                          {
                            OFFSET -1.805 0 0
                          }
                        }
                      }
                    }
                  }
                  JOINT RightInHandMiddle
                  {
                    OFFSET -3.38211 0.517263 0.756737
                    CHANNELS 3 Zrotation Xrotation Yrotation
                    JOINT RightHandMiddle1
                    {
                      OFFSET -5.17411 -0.084 0.313895
                      CHANNELS 3 Zrotation Xrotation Yrotation
                      JOINT RightHandMiddle2
                      {
                        OFFSET -3.94947 0 0
                        CHANNELS 3 Zrotation Xrotation Yrotation
                        JOINT RightHandMiddle3
                        {
                          OFFSET -2.47579 0 0
                          CHANNELS 3 Zrotation Xrotation Yrotation
                          End Site
                          {
                            OFFSET -1.975 0 0
                          }
                        }
                      }
                    }
                  }
                  JOINT RightInHandRing
                  {
                    OFFSET -3.36516 0.537895 -0.128947
                    CHANNELS 3 Zrotation Xrotation Yrotation
                    JOINT RightHandRing1
                    {
                      OFFSET -4.63474 -0.022105 -0.478947
                      CHANNELS 3 Zrotation Xrotation Yrotation
                      JOINT RightHandRing2
                      {
                        OFFSET -3.44238 0 0
                        CHANNELS 3 Zrotation Xrotation Yrotation
                        JOINT RightHandRing3
                        {
                          OFFSET -2.3881 0 0
                          CHANNELS 3 Zrotation Xrotation Yrotation
                          End Site
                          {
                            OFFSET -1.857 0 0
                          }
                        }
                      }
                    }
                  }
                  JOINT RightInHandPinky
                  {
                    OFFSET -3.16105 0.469368 -1.20179
                    CHANNELS 3 Zrotation Xrotation Yrotation
                    JOINT RightHandPinky1
                    {
                      OFFSET -4.14105 -0.022105 -1.09053
                      CHANNELS 3 Zrotation Xrotation Yrotation
                      JOINT RightHandPinky2
                      {
                        OFFSET -2.75653 0 0
                        CHANNELS 3 Zrotation Xrotation Yrotation
                        JOINT RightHandPinky3
                        {
                          OFFSET -1.74189 0 0
                          CHANNELS 3 Zrotation Xrotation Yrotation
                          End Site
                          {
                            OFFSET -1.645 0 0
                          }
                        }
                      }
                    }
                  }
                }
              }
            }
          }
          JOINT LeftShoulder
          {
            OFFSET 3.20564 6.89109 0.00274842
            CHANNELS 3 Zrotation Xrotation Yrotation
            JOINT LeftArm
            {
              OFFSET 13.6527 -0.337397 -0.593392
              CHANNELS 3 Zrotation Xrotation Yrotation
              JOINT LeftForeArm
              {
                OFFSET 26.4763 0.641327 -0.508755
                CHANNELS 3 Zrotation Xrotation Yrotation
                JOINT LeftHand
                {
                  OFFSET 25.8262 -0.0944446 -0.219839
                  CHANNELS 3 Zrotation Xrotation Yrotation
                  JOINT LeftHandThumb1
                  {
                    OFFSET 2.48905 0.190105 3.12053
                    CHANNELS 3 Zrotation Xrotation Yrotation
                    JOINT LeftHandThumb2
                    {
                      OFFSET 3.68274 0 0
                      CHANNELS 3 Zrotation Xrotation Yrotation
                      JOINT LeftHandThumb3
                      {
                        OFFSET 2.55832 0 0
                        CHANNELS 3 Zrotation Xrotation Yrotation
                        End Site
                        {
                          OFFSET 2.194 0 0
                        }
                      }
                    }
                  }
                  JOINT LeftInHandIndex
                  {
                    OFFSET 3.22368 0.508421 1.97842
                    CHANNELS 3 Zrotation Xrotation Yrotation
                    JOINT LeftHandIndex1
                    {
                      OFFSET 5.21684 -0.091368 0.999158
                      CHANNELS 3 Zrotation Xrotation Yrotation
                      JOINT LeftHandIndex2
                      {
                        OFFSET 3.61937 0 0
                        CHANNELS 3 Zrotation Xrotation Yrotation
                        JOINT LeftHandIndex3
                        {
                          OFFSET 2.0521 0 0
                          CHANNELS 3 Zrotation Xrotation Yrotation
                          End Site
                          {
                            OFFSET 1.805 0 0
                          }
                        }
                      }
                    }
                  }
                  JOINT LeftInHandMiddle
                  {
                    OFFSET 3.38211 0.517263 0.756737
                    CHANNELS 3 Zrotation Xrotation Yrotation
                    JOINT LeftHandMiddle1
                    {
                      OFFSET 5.17411 -0.084 0.313895
                      CHANNELS 3 Zrotation Xrotation Yrotation
                      JOINT LeftHandMiddle2
                      {
                        OFFSET 3.94947 0 0
                        CHANNELS 3 Zrotation Xrotation Yrotation
                        JOINT LeftHandMiddle3
                        {
                          OFFSET 2.47579 0 0
                          CHANNELS 3 Zrotation Xrotation Yrotation
                          End Site
                          {
                            OFFSET 1.975 0 0
                          }
                        }
                      }
                    }
                  }
                  JOINT LeftInHandRing
                  {
                    OFFSET 3.36516 0.537895 -0.128947
                    CHANNELS 3 Zrotation Xrotation Yrotation
                    JOINT LeftHandRing1
                    {
                      OFFSET 4.63474 -0.022105 -0.478947
                      CHANNELS 3 Zrotation Xrotation Yrotation
                      JOINT LeftHandRing2
                      {
                        OFFSET 3.44238 0 0
                        CHANNELS 3 Zrotation Xrotation Yrotation
                        JOINT LeftHandRing3
                        {
                          OFFSET 2.3881 0 0
                          CHANNELS 3 Zrotation Xrotation Yrotation
                          End Site
                          {
                            OFFSET 1.857 0 0
                          }
                        }
                      }
                    }
                  }
                  JOINT LeftInHandPinky
                  {
                    OFFSET 3.16105 0.469368 -1.20179
                    CHANNELS 3 Zrotation Xrotation Yrotation
                    JOINT LeftHandPinky1
                    {
                      OFFSET 4.14105 -0.022105 -1.09053
                      CHANNELS 3 Zrotation Xrotation Yrotation
                      JOINT LeftHandPinky2
                      {
                        OFFSET 2.75653 0 0
                        CHANNELS 3 Zrotation Xrotation Yrotation
                        JOINT LeftHandPinky3
                        {
                          OFFSET 1.74189 0 0
                          CHANNELS 3 Zrotation Xrotation Yrotation
                          End Site
                          {
                            OFFSET 1.645 0 0
                          }
                        }
                      }
                    }
                  }
                }
              }
            }
          }
        }
      }
    }
  }
}
MOTION
Frames:	6
Frame Time:	0.00833333
-633.158 85.5415 -27.4826 5.72919 -20.1093 139.426 30.1015 -39.5272 21.1731 -9.16953 25.5312 23.0457 13.2769 10.3231 38.5822 34.3579 -13.5488 22.2034 10.0461 55.5629 -15.1176 -5.91866 -14.3317 24.3875 -5.52603 4.49076 -21.6679 -1.53804 0.302322 -5.55537 -2.55083 0.122695 -8.76848 -0.67012 -0.474026 2.89369 -2.57832 -2.31664 43.085 -11.6038 9.78211 27.9634 1.74926 -6.81389 -1.23985 68.1783 -35.0685 34.2612 1.35377 -50.6784 121.361 -13.748 -11.6953 4.17477 28.184 10.7294 19.1592 6.03371e-15 1.59028e-14 -10 7.02006e-15 3.18055e-15 -10 2.38542e-15 6.36111e-15 4.77083e-15 19.9818 0.871897 2.3964 24 0 1.27222e-14 20 4.77083e-15 -0 2.38542e-15 6.36111e-15 4.77083e-15 20 9.54166e-15 1.59028e-15 24 0 -0 20 -3.18055e-15 -6.36111e-15 2.38542e-15 6.36111e-15 4.77083e-15 19.9748 -1.02565 -2.81938 24 -3.18055e-15 -6.36111e-15 20 -9.54166e-15 3.18055e-15 2.38542e-15 6.36111e-15 4.77083e-15 19.7815 -3.00948 -8.30515 24 6.36111e-15 -0 20 6.36111e-15 6.36111e-15 0.674655 -5.36647 -12.6228 10.7888 14.7629 -150.494 13.9461 -13.8066 -24.285 -27.3964 -10.7026 -25.8428 -28.184 10.7294 -19.1592 -0 0 10 3.65023e-15 -2.38542e-15 10 8.82781e-32 -1.59028e-15 3.18055e-15 -19.9818 0.871897 -2.3964 -24 0 1.59028e-14 -20 -3.18055e-15 9.54166e-15 8.82781e-32 -1.59028e-15 3.18055e-15 -20 -1.98785e-15 -6.36111e-15 -24 0 -0 -20 -3.18055e-15 6.36111e-15 8.82781e-32 -1.59028e-15 3.18055e-15 -19.9748 -1.02565 2.81938 -24 -3.18055e-15 -6.36111e-15 -20 0 9.54166e-15 8.82781e-32 -1.59028e-15 3.18055e-15 -19.7815 -3.00948 8.30515 -24 -4.77083e-15 9.54166e-15 -20 -1.59028e-15 9.54166e-15 
-633.54 85.5377 -27.2503 6.03665 -20.5024 140.574 29.8677 -40.1525 20.0198 -9.18461 25.5312 23.0844 13.2879 10.3365 38.6026 34.9482 -14.4251 22.5191 10.6404 55.5382 -15.8739 -5.92552 -15.3259 23.7645 -5.07069 4.82769 -21.7139 -1.43527 0.358098 -5.55521 -2.38843 0.233293 -8.7719 -0.667064 -0.476322 2.88766 -2.61006 -2.31365 42.9187 -11.6224 9.75243 27.8475 1.89015 -7.0916 -1.1897 68.3648 -32.9261 34.5542 0.953426 -50.9807 120.513 -13.9088 -11.5691 4.90853 28.184 10.7294 19.1592 -5.60818e-16 -3.18055e-15 -10 -2.17563e-15 -3.18055e-15 -10 -7.95139e-16 6.36111e-15 -0 19.9818 0.871897 2.3964 24 -6.36111e-15 6.36111e-15 20 7.95139e-15 6.36111e-15 -7.95139e-16 6.36111e-15 -0 20 0 7.15625e-15 24 -6.36111e-15 6.36111e-15 20 3.18055e-15 6.36111e-15 -7.95139e-16 6.36111e-15 -0 19.9748 -1.02565 -2.81938 24 -6.36111e-15 1.27222e-14 20 -4.77083e-15 1.27222e-14 -7.95139e-16 6.36111e-15 -0 19.7815 -3.00948 -8.30515 24 0 1.11319e-14 20 0 -0 0.509348 -5.75623 -12.4998 10.3729 15.8761 -149.664 14.0514 -13.4824 -23.6622 -27.9095 -10.6419 -25.6434 -28.184 10.7294 -19.1592 5.60818e-16 -3.18055e-15 10 -2.6688e-15 -3.18055e-15 10 3.18055e-15 1.59028e-15 3.18055e-15 -19.9818 0.871897 -2.3964 -24 -1.59028e-15 -1.27222e-14 -20 -3.18055e-15 -1.74931e-14 3.18055e-15 1.59028e-15 3.18055e-15 -20 1.59028e-15 -9.54166e-15 -24 7.95139e-15 -1.59028e-14 -20 9.54166e-15 -1.43125e-14 3.18055e-15 1.59028e-15 3.18055e-15 -19.9748 -1.02565 2.81938 -24 -3.18055e-15 -1.90833e-14 -20 6.36111e-15 -1.27222e-14 3.18055e-15 1.59028e-15 3.18055e-15 -19.7815 -3.00948 8.30515 -24 3.18055e-15 -1.90833e-14 -20 3.18055e-15 -4.77083e-15 
-633.919 85.5593 -27.0144 6.36627 -20.9006 141.839 29.7224 -40.5994 21.5085 -8.40033 25.5307 21.0434 12.6806 9.64506 37.6472 35.548 -15.3665 22.8671 9.31 54.9846 -13.5863 -5.39585 -15.4342 21.6011 -4.98993 4.17039 -22.1891 -1.34428 1.16944 -5.90844 -2.24693 0.251453 -9.01893 -0.663809 -0.483218 2.90507 -2.56532 -2.2396 43.4077 -11.6018 9.86943 28.1615 1.88456 -7.09098 -1.20654 68.9816 -29.6965 35.2153 0.55184 -51.2682 119.581 -13.6486 -14.8469 1.08587 28.184 10.7294 19.1592 -1.12164e-15 -6.36111e-15 -10 4.91207e-15 9.54166e-15 -10 -3.18055e-15 3.18055e-15 4.37326e-15 19.9818 0.871897 2.3964 24 -1.59028e-14 3.18055e-15 20 -7.95139e-15 3.18055e-15 -3.18055e-15 3.18055e-15 4.37326e-15 20 9.54166e-15 -0 24 1.27222e-14 7.95139e-15 20 7.95139e-15 -0 -3.18055e-15 3.18055e-15 4.37326e-15 19.9748 -1.02565 -2.81938 24 3.18055e-15 7.95139e-15 20 -6.36111e-15 -0 -3.18055e-15 3.18055e-15 4.37326e-15 19.7815 -3.00948 -8.30515 24 6.36111e-15 -3.18055e-15 20 -6.36111e-15 -0 0.377349 -5.77036 -11.3379 9.97642 16.9818 -148.914 14.2293 -13.1244 -22.8535 -28.4533 -10.5686 -25.4228 -28.184 10.7294 -19.1592 -2.5286e-15 -3.97569e-15 10 -5.3376e-15 -6.36111e-15 10 -0 -7.15625e-15 -0 -19.9818 0.871897 -2.3964 -24 4.77083e-15 -1.59028e-14 -20 0 6.36111e-15 -0 -7.15625e-15 -0 -20 -1.59028e-15 -1.90833e-14 -24 6.36111e-15 -3.18055e-15 -20 -3.18055e-15 3.18055e-15 -0 -7.15625e-15 -0 -19.9748 -1.02565 2.81938 -24 1.59028e-15 -2.22639e-14 -20 1.59028e-15 -6.36111e-15 -0 -7.15625e-15 -0 -19.7815 -3.00948 8.30515 -24 1.59028e-15 -3.18055e-15 -20 1.59028e-15 -1.59028e-15 
-634.334 85.5345 -26.8417 6.72701 -21.2945 143.235 29.379 -41.2151 21.2551 -8.25078 25.3483 20.8167 12.8411 9.31515 36.6819 36.1335 -16.3527 23.2606 9.89019 54.6882 -14.2214 -5.49122 -16.2552 20.6416 -4.62019 4.20954 -22.9404 -1.2511 1.24711 -6.11705 -2.0996 0.271121 -9.28921 -0.661235 -0.490187 2.92195 -2.51979 -2.16829 43.9098 -11.5717 9.96242 28.4783 1.87356 -7.09366 -1.24671 69.6212 -26.3588 35.8936 0.124685 -51.5251 118.543 -13.8596 -14.9747 1.46882 28.184 10.7294 19.1592 0 0 -10 -4.35126e-15 -6.36111e-15 -10 1.59028e-15 3.18055e-15 -2.78299e-15 19.9818 0.871897 2.3964 24 -3.18055e-15 1.59028e-15 20 0 -3.18055e-15 1.59028e-15 3.18055e-15 -2.78299e-15 20 -6.36111e-15 -3.97569e-15 24 6.36111e-15 -0 20 3.18055e-15 -0 1.59028e-15 3.18055e-15 -2.78299e-15 19.9748 -1.02565 -2.81938 24 -9.54166e-15 -9.54166e-15 20 -1.27222e-14 -9.54166e-15 1.59028e-15 3.18055e-15 -2.78299e-15 19.7815 -3.00948 -8.30515 24 3.18055e-15 -3.18055e-15 20 1.59028e-15 -3.18055e-15 0.225043 -5.77755 -10.1263 9.53794 18.1432 -148.051 14.3828 -12.7021 -22.0355 -29.0608 -10.4847 -25.1605 -28.184 10.7294 -19.1592 7.37303e-15 3.97569e-15 10 5.75822e-15 3.97569e-15 10 -1.59028e-15 4.77083e-15 3.18055e-15 -19.9818 0.871897 -2.3964 -24 -1.59028e-15 3.18055e-14 -20 3.18055e-15 1.59028e-14 -1.59028e-15 4.77083e-15 3.18055e-15 -20 -1.51076e-14 1.90833e-14 -24 1.59028e-15 3.49861e-14 -20 0 -3.18055e-15 -1.59028e-15 4.77083e-15 3.18055e-15 -19.9748 -1.02565 2.81938 -24 -1.11319e-14 3.65764e-14 -20 0 7.95139e-15 -1.59028e-15 4.77083e-15 3.18055e-15 -19.7815 -3.00948 8.30515 -24 -1.11319e-14 5.56597e-14 -20 4.77083e-15 -1.27222e-14 
-634.812 85.5034 -26.6338 7.10988 -21.6979 144.757 28.9318 -41.8732 20.8989 -8.71983 24.5766 22.7117 14.0425 8.83666 33.7565 36.6898 -17.411 23.6463 10.4845 54.3252 -14.8775 -5.62474 -17.0939 19.6188 -4.14054 4.45297 -23.1155 -1.12858 1.46609 -6.19787 -1.9098 0.382758 -9.34568 -0.663616 -0.493055 2.91481 -2.5555 -2.18657 43.7439 -11.5751 9.85985 28.3486 1.77705 -7.53319 -2.31934 70.2982 -22.9331 36.5816 -0.309457 -51.7218 117.397 -14.0341 -15.1606 1.86085 28.184 10.7294 19.1592 -1.68245e-15 -9.54166e-15 -10 -4.35126e-15 -6.36111e-15 -10 1.59028e-15 -3.18055e-15 2.78299e-15 19.9818 0.871897 2.3964 24 -6.36111e-15 -3.18055e-15 20 -3.18055e-15 -1.27222e-14 1.59028e-15 -3.18055e-15 2.78299e-15 20 -6.36111e-15 3.97569e-15 24 0 -3.18055e-15 20 -3.18055e-15 -0 1.59028e-15 -3.18055e-15 2.78299e-15 19.9748 -1.02565 -2.81938 24 -3.18055e-15 -1.11319e-14 20 4.77083e-15 -3.18055e-15 1.59028e-15 -3.18055e-15 2.78299e-15 19.7815 -3.00948 -8.30515 24 -6.36111e-15 -4.77083e-15 20 -1.59028e-15 -3.18055e-15 -0.00110585 -6.20997 -9.86756 9.06258 19.3414 -147.095 14.4989 -12.2761 -21.2404 -29.6665 -10.3689 -24.841 -28.184 10.7294 -19.1592 -3.44239e-15 -7.95139e-15 10 -9.90163e-15 -7.95139e-15 10 -2.64834e-31 -4.77083e-15 -3.18055e-15 -19.9818 0.871897 -2.3964 -24 6.36111e-15 -1.59028e-14 -20 9.54166e-15 -9.54166e-15 -2.64834e-31 -4.77083e-15 -3.18055e-15 -20 9.93923e-16 -2.54444e-14 -24 6.36111e-15 -3.65764e-14 -20 0 -2.06736e-14 -2.64834e-31 -4.77083e-15 -3.18055e-15 -19.9748 -1.02565 2.81938 -24 1.59028e-14 -3.18055e-14 -20 1.59028e-15 -6.36111e-15 -2.64834e-31 -4.77083e-15 -3.18055e-15 -19.7815 -3.00948 8.30515 -24 2.14687e-14 -5.96354e-14 -20 7.95139e-15 -5.56597e-15 
-635.311 85.4697 -26.4155 7.47582 -22.127 146.385 28.3928 -42.6165 20.5133 -8.58166 24.4022 22.4887 14.2064 8.42247 32.6671 37.2052 -18.6015 23.8879 10.8924 53.9682 -15.2584 -5.89654 -17.9695 18.4745 -3.63683 4.7314 -23.1977 -0.998694 1.71829 -6.26049 -1.71136 0.497376 -9.36152 -0.666161 -0.492644 2.90079 -2.60283 -2.21254 43.3842 -11.5446 9.68265 28.0922 1.68633 -8.08552 -3.6536 71.0635 -19.4327 37.2935 -0.753052 -51.7885 116.16 -14.2065 -15.2023 2.53757 28.184 10.7294 19.1592 -5.89842e-15 3.18055e-15 -10 -3.72279e-15 6.36111e-15 -10 -0 0 1.98785e-15 19.9818 0.871897 2.3964 24 -9.54166e-15 1.59028e-15 20 1.59028e-15 -3.18055e-15 -0 0 1.98785e-15 20 0 5.96354e-15 24 -3.18055e-15 -0 20 -7.95139e-15 3.18055e-15 -0 0 1.98785e-15 19.9748 -1.02565 -2.81938 24 0 1.59028e-15 20 -1.11319e-14 3.18055e-15 -0 0 1.98785e-15 19.7815 -3.00948 -8.30515 24 0 3.18055e-15 20 -1.59028e-15 -1.59028e-15 -0.234193 -6.76831 -9.77635 8.60354 20.5928 -146.047 14.6162 -11.8765 -20.4747 -30.2582 -10.2192 -24.4866 -28.184 10.7294 -19.1592 -1.61481e-15 0 10 -2.5987e-15 -3.57812e-15 10 3.18055e-15 -3.97569e-15 1.59028e-15 -19.9818 0.871897 -2.3964 -24 6.36111e-15 -1.90833e-14 -20 -7.95139e-15 -4.77083e-15 3.18055e-15 -3.97569e-15 1.59028e-15 -20 5.1684e-15 -9.54166e-15 -24 3.18055e-15 -3.97569e-14 -20 3.18055e-15 -1.27222e-14 3.18055e-15 -3.97569e-15 1.59028e-15 -19.9748 -1.02565 2.81938 -24 7.15625e-15 -4.29375e-14 -20 0 -1.59028e-14 3.18055e-15 -3.97569e-15 1.59028e-15 -19.7815 -3.00948 8.30515 -24 1.98785e-14 -7.71285e-14 -20 7.95139e-16 -2.38542e-15 
